<svg width="129" height="166" viewBox="0 0 129 166" fill="none" xmlns="http://www.w3.org/2000/svg">
<path d="M92.554 109.648C87.242 111.248 82.25 113.872 77.578 117.52C72.97 121.104 69.386 125.296 66.826 130.096C66.122 129.968 64.746 129.904 62.698 129.904C60.586 129.904 59.178 129.968 58.474 130.096C55.914 125.296 52.298 121.104 47.626 117.52C43.018 113.872 38.058 111.248 32.746 109.648L41.386 94.576C45.546 96.816 49.162 99.696 52.234 103.216C55.306 106.736 57.61 110.48 59.146 114.448C58.378 106.576 57.674 97.648 57.034 87.664C56.458 77.616 56.17 70.832 56.17 67.312H71.914C71.914 72.624 71.434 78.832 70.474 85.936C69.514 93.04 68.202 101.552 66.538 111.472L65.962 114.832C67.434 110.8 69.738 106.992 72.874 103.408C76.01 99.824 79.69 96.88 83.914 94.576L92.554 109.648Z" fill="black"/>
<circle cx="64.5" cy="101.5" r="63.5" stroke="black" stroke-width="2"/>
</svg>
