<svg width="32" height="32" viewBox="0 0 32 32" fill="none" xmlns="http://www.w3.org/2000/svg">
<path d="M14.265 22.9596C14.265 24.1 14.3253 25.0873 14.2543 26.0681C14.1711 27.5558 13.5557 28.9657 12.5181 30.0459C11.4805 31.1261 10.0884 31.8061 8.59049 31.9644C7.09261 32.1228 5.5866 31.7491 4.34166 30.9102C3.09672 30.0713 2.19398 28.8218 1.79479 27.3851C1.64007 26.7695 1.56774 26.1364 1.57967 25.5021C1.5388 19.2128 1.49793 12.9235 1.50008 6.63635C1.50008 2.61085 4.16536 0.0172607 8.2375 0.00875014C13.6046 0.00875014 18.9696 -0.0167841 24.3367 0.0193858C27.7184 0.0406622 30.3256 2.55766 30.5751 5.93849C30.8096 9.05122 28.411 12.0363 25.2101 12.4555C23.9947 12.615 22.7427 12.481 21.2111 12.481C22.6997 14.0001 23.4225 15.5022 23.3623 17.332C23.3141 18.7943 22.7106 20.1849 21.672 21.2267C20.6335 22.2685 19.2361 22.885 17.7585 22.9532C16.6657 22.9937 15.56 22.9596 14.265 22.9596ZM2.9435 24.5C4.09437 22.349 5.93576 21.666 8.17296 21.6681C11.1401 21.6681 14.1058 21.6681 17.0701 21.6681C17.5337 21.6826 17.9974 21.6477 18.4533 21.5639C19.5555 21.322 20.5293 20.688 21.1897 19.7823C21.8501 18.8767 22.151 17.7626 22.0352 16.6519C21.9195 15.5412 21.3951 14.5113 20.5617 13.758C19.7284 13.0047 18.6443 12.5805 17.5154 12.5661C14.4436 12.5221 11.3703 12.5221 8.29558 12.5661C5.99814 12.598 4.15891 11.9065 3.1156 9.73845C3.1156 9.71717 2.99943 9.73845 2.9435 9.73845V24.5Z" fill="#EB5F5F"/>
</svg>
