<svg width="851" height="355" viewBox="0 0 851 355" fill="none" xmlns="http://www.w3.org/2000/svg">
<path d="M123.372 171.095C123.372 167.362 124.705 164.163 125.505 160.964C125.772 159.897 125.772 158.031 125.505 157.231C124.972 156.165 124.705 155.898 123.638 155.632C122.838 155.365 121.238 156.431 120.705 157.231C117.772 161.764 117.238 167.096 117.238 172.428C117.238 178.827 118.305 185.225 121.772 190.824C123.105 192.957 124.705 193.223 126.305 192.157C127.905 191.091 127.905 189.757 127.105 188.158C126.038 185.492 123.905 183.359 123.105 178.027C127.105 177.76 130.838 178.027 134.305 177.493C142.572 176.427 154.305 174.028 161.772 170.295C161.772 170.295 162.572 170.828 164.172 172.161C167.105 174.827 171.905 179.36 174.305 182.292C181.238 191.091 182.572 199.089 182.038 210.286C181.772 215.885 180.972 221.484 179.372 226.816C176.972 234.548 172.972 241.48 166.838 247.078C160.438 252.677 153.238 255.876 144.438 254.543C140.705 254.277 134.838 251.344 133.772 250.811C131.372 249.478 130.038 250.011 130.038 252.144C129.772 259.609 146.838 261.209 154.038 260.142C156.705 259.876 158.838 258.809 159.105 258.809C159.105 258.809 159.372 259.342 160.172 260.675C171.638 279.338 179.905 300.4 167.638 323.862C155.372 347.323 106.305 367.586 69.5051 324.662C43.6384 293.735 35.6384 286.003 17.7718 239.347C8.43842 215.085 -1.42824 183.359 0.171758 143.901C0.171758 143.901 0.438426 56.9862 60.7051 20.4608C153.772 -35.7937 200.172 41.7895 200.172 41.7895C209.238 55.3866 223.372 97.2442 188.972 142.301C165.505 172.695 123.372 171.095 123.372 171.095Z" fill="#EB5F5F"/>
<path d="M651.638 301.198C656.438 294.533 662.571 283.069 664.438 276.137C670.838 255.075 672.171 250.276 674.571 228.68C675.638 218.816 676.704 191.622 676.971 181.757C677.238 166.827 677.504 151.63 676.971 136.7C676.704 124.703 675.104 112.439 674.304 100.442C673.771 90.577 676.171 77.7798 678.038 71.6478C681.504 61.7833 687.371 53.5184 695.638 47.3864C706.038 39.6547 717.504 34.8558 730.038 31.9231C749.771 27.3907 769.771 27.6573 789.504 31.9231C801.504 34.5892 824.438 43.3873 841.771 75.9136C866.571 122.57 828.971 160.695 828.971 160.695C818.038 169.227 806.038 175.092 791.904 176.425C788.438 176.692 784.438 176.692 781.238 176.692C781.504 171.626 780.971 167.627 780.171 163.628C779.638 160.962 777.504 160.429 775.638 162.295C775.104 162.828 775.371 164.161 775.638 165.228C776.971 170.026 777.238 176.425 775.904 180.957C774.838 184.69 773.771 186.823 771.638 190.289C770.571 191.622 770.038 192.155 769.238 192.955C767.904 194.555 767.904 196.154 769.238 197.487C770.571 198.554 772.171 198.287 773.504 196.687C776.971 192.422 778.838 187.623 779.904 182.291C793.771 184.157 806.571 180.691 818.838 174.026C818.838 174.026 839.638 210.018 800.171 236.146C786.571 245.21 774.304 246.277 769.771 246.01C769.504 242.278 769.238 238.812 768.704 235.346C768.438 233.746 767.904 232.146 767.371 230.547C766.838 228.947 765.771 227.881 764.171 228.68C762.571 229.214 762.304 230.547 762.838 232.146C765.504 240.678 765.238 249.209 763.104 257.741C763.104 258.274 762.838 259.34 762.571 259.874C762.304 261.207 762.038 263.073 763.638 263.34C765.238 263.606 766.038 263.073 767.371 261.473C768.704 259.341 768.971 256.674 769.238 254.542C769.504 253.208 769.771 250.276 769.771 250.276C769.771 250.276 780.438 252.142 797.238 243.611C814.038 234.812 820.438 223.082 820.438 223.082C820.438 223.082 855.904 256.408 839.371 300.932C824.171 342.523 796.971 352.12 772.704 354.52C698.571 360.918 651.638 301.198 651.638 301.198Z" fill="#EB5F5F"/>
<path d="M447.905 279.341C447.905 279.341 473.238 255.079 470.838 179.629C468.705 116.976 440.171 91.3815 440.171 91.3815C449.771 77.2512 465.238 64.454 487.371 59.1218C487.371 59.1218 556.971 38.8595 587.905 124.174C621.505 216.954 556.705 276.941 556.705 276.941C548.171 285.473 534.571 293.738 515.905 297.737C470.571 308.401 447.905 279.341 447.905 279.341ZM518.838 172.164C518.838 154.834 518.838 143.104 517.505 129.24C517.238 127.64 516.438 125.774 514.571 126.041C512.705 126.307 511.905 127.907 511.905 129.773C512.171 138.838 512.438 148.169 512.438 157.234C512.438 175.097 512.705 187.361 509.505 206.29C507.905 218.021 504.705 230.285 502.838 240.149C502.305 243.349 504.438 245.481 507.638 244.148C508.705 243.615 510.038 242.282 510.305 240.949C512.171 233.751 514.038 226.552 515.105 219.354C514.838 219.354 518.838 191.893 518.838 172.164Z" fill="#EB5F5F"/>
<path d="M448.972 263.074C442.038 275.605 430.572 290.268 402.305 297.733C331.905 316.396 305.505 255.076 305.505 255.076C305.505 255.076 322.305 217.484 327.105 191.889C332.705 160.696 323.905 121.238 323.638 120.971C323.638 120.971 326.305 117.505 329.772 114.573C335.905 108.974 342.038 103.642 348.705 98.8428C360.438 90.3113 373.238 84.7125 387.905 83.1129C401.772 81.7798 414.838 84.4459 426.838 91.911C448.972 105.775 463.105 134.302 463.905 188.157C464.438 227.615 455.638 250.81 448.972 263.074ZM380.438 190.556C378.038 206.553 375.905 219.35 373.505 233.747C372.705 239.346 371.638 243.345 371.372 248.944C370.838 252.676 372.705 253.476 373.505 253.743C375.372 254.276 376.172 253.743 376.972 252.676C377.772 251.61 378.305 249.477 378.572 248.144C379.638 242.812 380.705 237.746 381.505 232.414C382.572 225.482 383.638 218.817 384.705 211.885C386.038 202.287 387.638 192.423 388.705 182.825C389.772 174.293 390.038 165.762 390.572 157.23C390.838 153.764 390.572 150.298 390.572 146.566C390.572 144.433 389.238 143.633 387.105 143.633C384.972 143.633 383.638 144.966 383.372 147.632C383.105 151.631 383.105 158.297 382.838 162.562L380.438 190.556Z" fill="#EB5F5F"/>
<path d="M276.706 278.541C251.373 294.538 227.373 295.871 212.173 288.939C206.04 286.006 200.706 282.274 195.64 278.008C188.44 271.876 183.373 266.277 179.373 258.012C178.573 256.146 176.173 250.547 175.373 247.615C175.373 247.615 194.573 218.021 186.04 191.627C181.506 178.03 168.173 168.432 168.173 168.432C168.173 168.432 182.573 157.234 186.573 152.968C190.573 148.703 200.973 134.572 206.84 123.641C212.44 108.978 215.64 98.0469 217.506 79.1176C217.506 79.1176 231.64 69.7863 247.106 67.1202C262.573 64.4541 280.173 69.7863 294.039 80.1841C307.639 93.2479 316.706 100.98 321.506 135.905C327.906 182.295 311.639 256.413 276.706 278.541ZM261.506 135.106C261.506 131.106 260.706 130.307 258.306 130.04C256.44 129.773 254.84 130.307 254.306 132.706C251.906 145.77 249.506 159.1 247.106 172.164C245.24 182.562 242.84 192.693 240.973 203.091C238.84 213.755 237.239 224.686 235.373 235.35C234.84 238.816 237.239 240.416 240.706 239.883C242.573 239.616 242.84 237.483 243.106 235.884C245.506 222.02 247.64 207.89 250.306 193.759C252.973 179.363 256.173 164.966 258.84 150.569C259.906 144.97 260.706 139.638 261.506 135.106Z" fill="#EB5F5F"/>
<path d="M668.705 103.908C671.905 126.304 671.372 147.899 671.372 169.761C671.372 181.225 671.372 192.689 670.305 204.153C669.239 216.951 668.172 230.014 665.772 242.812C665.772 242.812 655.905 310.264 610.038 313.196C564.172 316.129 556.172 288.135 556.172 288.135C556.172 288.135 604.705 251.343 603.639 178.559C602.839 125.77 591.638 113.506 581.772 92.1776C578.305 84.4459 574.838 72.7151 577.772 60.1845C579.638 52.7195 582.572 44.9878 592.438 37.7894C627.372 11.9283 657.772 40.4554 657.772 40.4554C681.505 63.917 666.038 96.9766 666.038 96.9766C654.038 123.904 628.705 125.504 628.705 125.504C627.372 125.504 626.838 125.237 625.772 125.504C624.972 125.77 624.438 126.57 624.438 127.103C624.438 127.903 624.438 128.703 624.705 129.236C625.505 130.036 627.372 130.036 627.372 130.036C657.772 130.303 668.705 103.908 668.705 103.908Z" fill="#EB5F5F"/>
</svg>
