<svg width="50" height="55" viewBox="0 0 50 55" fill="none" xmlns="http://www.w3.org/2000/svg">
<path d="M21.9399 39.4618C21.9399 41.4219 22.0434 43.1187 21.9214 44.8045C21.7784 47.3615 20.7207 49.7848 18.9374 51.6414C17.154 53.4979 14.7613 54.6667 12.1868 54.9389C9.61229 55.211 7.02385 54.5687 4.8841 53.1268C2.74436 51.685 1.19277 49.5375 0.506668 47.0681C0.240738 46.01 0.116432 44.922 0.136938 43.8318C0.0666894 33.0221 -0.00355747 22.2123 0.00013983 11.4062C0.00013983 4.48741 4.58109 0.0296668 11.5801 0.0150393C20.8048 0.0150393 30.0259 -0.0288478 39.2506 0.0333193C45.0628 0.0698881 49.5439 4.39598 49.9728 10.2068C50.3758 15.5568 46.2533 20.6874 40.7517 21.4078C38.6628 21.6821 36.5109 21.4517 33.8785 21.4517C36.437 24.0627 37.6793 26.6445 37.5758 29.7894C37.493 32.3027 36.4557 34.6928 34.6707 36.4834C32.8856 38.274 30.4839 39.3335 27.9443 39.4509C26.0661 39.5203 24.1657 39.4618 21.9399 39.4618ZM2.48102 42.1094C4.45908 38.4123 7.62397 37.2384 11.4692 37.2421C16.569 37.2421 21.6663 37.2421 26.7612 37.2421C27.5578 37.267 28.3549 37.207 29.1385 37.0629C31.0328 36.6472 32.7066 35.5574 33.8417 34.0009C34.9767 32.4443 35.4939 30.5295 35.2949 28.6205C35.0959 26.7114 34.1946 24.9413 32.7624 23.6465C31.3301 22.3518 29.4667 21.6227 27.5265 21.598C22.2468 21.5224 16.9646 21.5224 11.6799 21.598C7.73118 21.6528 4.57 20.4643 2.77681 16.738C2.77681 16.7014 2.57715 16.738 2.48102 16.738V42.1094Z" fill="#EB5F5F"/>
</svg>
