<svg width="100" height="100" viewBox="0 0 100 100" fill="none" xmlns="http://www.w3.org/2000/svg">
<path fill-rule="evenodd" clip-rule="evenodd" d="M50 0C45.7167 0 42.3698 3.69824 42.796 7.96021L46.0452 40.4524L25.3674 15.1794C22.6551 11.8643 17.6734 11.616 14.6447 14.6445C11.6159 17.6733 11.8644 22.655 15.1794 25.3674L40.4521 46.0452L7.96027 42.7961C3.69824 42.3699 0 45.7168 0 50C0 54.2832 3.69824 57.6301 7.96033 57.2039L40.4521 53.9548L15.1794 74.6326C11.8644 77.345 11.6159 82.3267 14.6447 85.3552C17.6734 88.384 22.6551 88.1355 25.3674 84.8206L46.0452 59.5476L42.796 92.0398C42.3698 96.3018 45.7167 100 50 100C54.2833 100 57.6302 96.3018 57.204 92.0398L53.9548 59.5476L74.6326 84.8206C77.3449 88.1357 82.3266 88.384 85.3553 85.3555C88.3841 82.3267 88.1356 77.345 84.8206 74.6326L59.5479 53.9548L92.0397 57.2039C96.3018 57.6301 100 54.2832 100 50C100 45.7168 96.3018 42.3699 92.0397 42.7961L59.5479 46.0452L84.8206 25.3674C88.1356 22.655 88.3841 17.6733 85.3553 14.6445C82.3266 11.616 77.3449 11.8643 74.6326 15.1794L53.9548 40.4524L57.204 7.96021C57.6302 3.69824 54.2833 0 50 0Z" fill="white"/>
</svg>
