<svg width="343" height="196" viewBox="0 0 343 196" fill="none" xmlns="http://www.w3.org/2000/svg">
<path d="M341.5 102.224C341.5 127.315 322.88 150.359 292.049 167.218C261.274 184.045 218.656 194.5 171.5 194.5C124.344 194.5 81.7259 184.045 50.9508 167.218C20.1198 150.359 1.5 127.315 1.5 102.224C1.5 77.133 20.1198 54.089 50.9508 37.2307C81.7259 20.4029 124.344 9.94824 171.5 9.94824C218.656 9.94824 261.274 20.4029 292.049 37.2307C322.88 54.089 341.5 77.133 341.5 102.224Z" fill="black" stroke="black" stroke-width="3"/>
<path d="M341.5 93.7759C341.5 118.867 322.88 141.911 292.049 158.769C261.274 175.597 218.656 186.052 171.5 186.052C124.344 186.052 81.7259 175.597 50.9508 158.769C20.1198 141.911 1.5 118.867 1.5 93.7759C1.5 68.6847 20.1198 45.6407 50.9508 28.7824C81.7259 11.9547 124.344 1.5 171.5 1.5C218.656 1.5 261.274 11.9547 292.049 28.7824C322.88 45.6407 341.5 68.6847 341.5 93.7759Z" fill="white" stroke="black" stroke-width="3"/>
</svg>
